<svg xmlns="http://www.w3.org/2000/svg" viewBox="0 0 165 181" fill-rule="evenodd" clip-rule="evenodd">
  <path d="M83.274,153.938c0,0 -3.17,-7.185 15.427,-17.118c0,0 34.238,-16.696 23.671,-28.531c0,0 -4.65,-6.129 -11.835,-9.088c0,0 -6.552,9.933 -13.526,14.583c0,0 7.185,2.747 2.324,6.974c0,0 -3.803,3.171 -10.778,7.397c0,0 -19.443,10.991 -5.284,25.784Z" fill="#256897"/>
  <path d="M94.792,9.804c0,0 -67.84,-0.951 -82.423,62.451c0,0 -8.559,39.626 13.948,72.912c0,0 62.768,-12.046 87.178,-64.353c0,0 33.603,27.263 70.694,-12.997c0,0 -41.846,18.07 -62.451,-6.34c0,0 -33.604,-43.114 -68.158,10.144c0,0 29.51,-22.015 43.9,-4.755c0,0 -20.124,39.944 -63.238,68.157c0,0 -46.918,-96.688 60.549,-125.219Z" fill="#2dbda8"/>
  <path d="M0.006,81.132c0,0 -2.853,-101.76 113.49,-77.351c0,0 -103.028,-11.729 -113.49,77.351Z" fill="#256897"/>
  <path d="M145.18,47.846c0,7.353 -5.961,13.314 -13.314,13.314c-7.354,0 -13.315,-5.961 -13.315,-13.314c0,-7.353 5.961,-13.314 13.315,-13.314c7.353,0 13.314,5.961 13.314,13.314Z" fill="#256897"/>
  <path d="M164.527,108.08c0,0 -7.889,101.494 -121.01,64.957c0,0 101.219,22.524 121.01,-64.957Z" fill="#256897"/>
</svg>
