<?xml version="1.0" encoding="UTF-8" standalone="no"?><!DOCTYPE svg PUBLIC "-//W3C//DTD SVG 1.1//EN" "http://www.w3.org/Graphics/SVG/1.1/DTD/svg11.dtd"><svg width="100%" height="100%" viewBox="0 0 461 181" version="1.1" xmlns="http://www.w3.org/2000/svg" xmlns:xlink="http://www.w3.org/1999/xlink" xml:space="preserve" xmlns:serif="http://www.serif.com/" style="fill-rule:evenodd;clip-rule:evenodd;stroke-linejoin:round;stroke-miterlimit:2;"><g><g><path d="M83.274,153.938c0,0 -3.17,-7.185 15.427,-17.118c0,0 34.238,-16.696 23.671,-28.531c0,0 -4.65,-6.129 -11.835,-9.088c0,0 -6.552,9.933 -13.526,14.583c0,0 7.185,2.747 2.324,6.974c0,0 -3.803,3.171 -10.778,7.397c0,0 -19.443,10.991 -5.284,25.784Z" style="fill:#256897;fill-rule:nonzero;"/><path d="M94.792,9.804c0,0 -67.84,-0.951 -82.423,62.451c0,0 -8.559,39.626 13.948,72.912c0,0 62.768,-12.046 87.178,-64.353c0,0 33.603,27.263 70.694,-12.997c0,0 -41.846,18.07 -62.451,-6.34c0,0 -33.604,-43.114 -68.158,10.144c0,0 29.51,-22.015 43.9,-4.755c0,0 -20.124,39.944 -63.238,68.157c0,0 -46.918,-96.688 60.549,-125.219Z" style="fill:#2dbda8;fill-rule:nonzero;"/><path d="M0.006,81.132c0,0 -2.853,-101.76 113.49,-77.351c0,0 -103.028,-11.729 -113.49,77.351Z" style="fill:#256897;fill-rule:nonzero;"/><path d="M145.18,47.846c0,7.353 -5.961,13.314 -13.314,13.314c-7.354,0 -13.315,-5.961 -13.315,-13.314c0,-7.353 5.961,-13.314 13.315,-13.314c7.353,0 13.314,5.961 13.314,13.314Z" style="fill:#256897;fill-rule:nonzero;"/><path d="M164.527,108.08c0,0 -7.889,101.494 -121.01,64.957c0,0 101.219,22.524 121.01,-64.957Z" style="fill:#256897;fill-rule:nonzero;"/></g><path d="M427.593,41.079l0,74.053c0,2.184 -1.773,3.957 -3.957,3.957l-7.915,0c-2.184,0 -3.957,-1.773 -3.957,-3.957l0,-74.053c0,-2.184 1.773,-3.957 3.957,-3.957l7.915,0c2.184,0 3.957,1.773 3.957,3.957Z" style="fill:#2dbda8;"/><path d="M382.651,70.191l74.053,0c2.184,0 3.957,1.773 3.957,3.957l0,7.915c0,2.184 -1.773,3.957 -3.957,3.957l-74.053,0c-2.184,0 -3.957,-1.773 -3.957,-3.957l0,-7.915c0,-2.184 1.773,-3.957 3.957,-3.957Z" style="fill:#2dbda8;"/><g transform="matrix(1,0,-0.317891,1,-541.155545,0)"><g transform="matrix(45.458045,0,0,45.458045,987.756908,121.66967)"></g><text x="703.781px" y="121.67px" style="font-family:'AzonixRegular', 'Azonix';font-size:45.458px;fill:#616164;">MOVIMENT<tspan x="954.345px " y="121.67px ">A</tspan></text></g></g></svg>